<svg width="254" height="254" viewBox="0 0 254 254" fill="none" xmlns="http://www.w3.org/2000/svg">
<circle cx="127" cy="124" r="113" fill="#392E26"/>
<path d="M139.473 121.975C139.221 122.005 138.955 122.026 138.679 122.026C136.712 122.043 133.975 121.083 131.837 120.072C130.758 119.571 129.822 119.064 129.158 118.686C129.011 118.605 128.936 118.557 128.814 118.486V113.77C131.919 113.148 134.322 110.993 136.004 108.467C138.005 105.465 134.502 102.463 126.996 102.463C119.497 102.463 115.994 105.465 117.993 108.467C119.79 111.164 122.404 113.44 125.812 113.876V118.489C125.022 118.952 123.623 119.725 121.965 120.443C119.991 121.311 117.67 122.039 115.953 122.026C115.678 122.026 115.406 122.005 115.161 121.975C114.336 121.859 113.581 122.434 113.469 123.258C113.357 124.079 113.932 124.834 114.752 124.943C115.144 124.998 115.542 125.028 115.954 125.028C118.769 125.011 121.717 123.874 124.062 122.791C125.478 122.131 126.598 121.502 127.313 121.083C128.028 121.502 129.148 122.132 130.564 122.791C132.917 123.874 135.861 125.011 138.68 125.028C139.085 125.028 139.49 124.998 139.874 124.943C140.695 124.835 141.277 124.079 141.158 123.258C141.049 122.437 140.293 121.858 139.473 121.975Z" fill="white"/>
<path d="M105.867 89.6078C103.079 89.6078 100.822 91.8713 100.822 94.6531C100.822 97.441 103.079 99.7045 105.867 99.7045C108.652 99.7045 110.912 97.441 110.912 94.6531C110.912 91.8718 108.652 89.6078 105.867 89.6078Z" fill="white"/>
<path d="M126.996 11C64.5887 11 14 61.5922 14 124.004C14 161.687 32.4636 195.041 60.8204 215.568C69.2318 203.497 67.445 136.517 72.0542 106.302C72.3129 104.614 72.6329 103 72.9803 101.427C52.7903 93.5845 58.1927 71.1001 67.2137 65.5172C78.1544 58.7465 85.3679 64.0636 89.2823 71.9202C101.503 60.9588 117.101 58.2221 126.997 58.2221C136.899 58.2221 152.497 60.9588 164.715 71.9202C168.633 64.0636 175.839 58.746 186.78 65.5172C195.808 71.0997 201.207 93.584 181.02 101.427C181.368 103 181.681 104.614 181.94 106.302C186.555 136.517 184.762 203.503 193.177 215.571C221.532 195.041 240 161.687 240 124.004C240 61.5922 189.404 11 126.996 11Z" fill="white"/>
<path d="M148.133 89.6078C145.341 89.6078 143.081 91.8713 143.081 94.6531C143.081 97.441 145.342 99.7045 148.133 99.7045C150.914 99.7045 153.178 97.441 153.178 94.6531C153.178 91.8718 150.914 89.6078 148.133 89.6078Z" fill="white"/>
<path d="M66.4714 223.384C66.4714 231.184 74.7 237.509 84.8502 237.509H162.757C172.908 237.509 181.137 231.184 181.137 223.384V223.204H66.4714V223.384Z" fill="white"/>
<path d="M181.911 170.677C178.462 167.61 173.643 165.702 168.372 165.702C167.807 165.702 166.289 165.702 164.529 165.702V163.08H82.3917V187.292C82.3917 199.231 88.3249 209.929 97.7074 217.221H149.212C155.424 212.393 160.109 206.068 162.576 198.881C164.409 199.397 166.358 199.682 168.372 199.68C173.643 199.682 178.462 197.772 181.911 194.705C185.368 191.644 187.521 187.367 187.518 182.691C187.521 178.015 185.369 173.738 181.911 170.677ZM174.647 188.256C173.024 189.691 170.839 190.564 168.372 190.564C166.949 190.564 165.621 190.263 164.438 189.742C164.493 188.929 164.528 188.116 164.528 187.292V174.817C166.289 174.817 167.807 174.817 168.372 174.817C170.839 174.822 173.023 175.69 174.647 177.125C176.26 178.564 177.243 180.502 177.245 182.691C177.243 184.879 176.261 186.821 174.647 188.256Z" fill="white"/>
</svg>
