<svg width="756" height="254" viewBox="0 0 756 254" fill="none" xmlns="http://www.w3.org/2000/svg">
<circle cx="127" cy="124" r="113" fill="white"/>
<path d="M139.473 121.975C139.221 122.005 138.955 122.026 138.679 122.026C136.712 122.043 133.975 121.083 131.837 120.072C130.758 119.571 129.822 119.064 129.158 118.686C129.011 118.605 128.936 118.557 128.814 118.486V113.77C131.919 113.148 134.322 110.993 136.004 108.467C138.005 105.465 134.502 102.463 126.996 102.463C119.497 102.463 115.994 105.465 117.993 108.467C119.79 111.164 122.404 113.44 125.812 113.876V118.489C125.022 118.952 123.623 119.725 121.965 120.443C119.991 121.311 117.67 122.039 115.953 122.026C115.678 122.026 115.406 122.005 115.161 121.975C114.336 121.859 113.581 122.434 113.469 123.258C113.357 124.079 113.932 124.834 114.752 124.943C115.144 124.998 115.542 125.028 115.954 125.028C118.769 125.011 121.717 123.874 124.062 122.791C125.478 122.131 126.598 121.502 127.313 121.083C128.028 121.502 129.148 122.132 130.564 122.791C132.917 123.874 135.861 125.011 138.68 125.028C139.085 125.028 139.49 124.998 139.874 124.943C140.695 124.835 141.277 124.079 141.158 123.258C141.049 122.437 140.293 121.858 139.473 121.975Z" fill="#392E26"/>
<path d="M105.867 89.6078C103.079 89.6078 100.822 91.8713 100.822 94.6531C100.822 97.441 103.079 99.7045 105.867 99.7045C108.652 99.7045 110.912 97.441 110.912 94.6531C110.912 91.8718 108.652 89.6078 105.867 89.6078Z" fill="#392E26"/>
<path d="M126.996 11C64.5887 11 14 61.5922 14 124.004C14 161.687 32.4636 195.041 60.8204 215.568C69.2318 203.497 67.445 136.517 72.0542 106.302C72.3129 104.614 72.6329 103 72.9803 101.427C52.7903 93.5845 58.1927 71.1001 67.2137 65.5172C78.1544 58.7465 85.3679 64.0636 89.2823 71.9202C101.503 60.9588 117.101 58.2221 126.997 58.2221C136.899 58.2221 152.497 60.9588 164.715 71.9202C168.633 64.0636 175.839 58.746 186.78 65.5172C195.808 71.0997 201.207 93.584 181.02 101.427C181.368 103 181.681 104.614 181.94 106.302C186.555 136.517 184.762 203.503 193.177 215.571C221.532 195.041 240 161.687 240 124.004C240 61.5922 189.404 11 126.996 11Z" fill="#392E26"/>
<path d="M148.133 89.6078C145.341 89.6078 143.081 91.8713 143.081 94.6531C143.081 97.441 145.342 99.7045 148.133 99.7045C150.914 99.7045 153.178 97.441 153.178 94.6531C153.178 91.8718 150.914 89.6078 148.133 89.6078Z" fill="#392E26"/>
<path d="M66.4714 223.384C66.4714 231.184 74.7 237.509 84.8502 237.509H162.757C172.908 237.509 181.137 231.184 181.137 223.384V223.204H66.4714V223.384Z" fill="#392E26"/>
<path d="M181.911 170.677C178.462 167.61 173.643 165.702 168.372 165.702C167.807 165.702 166.289 165.702 164.529 165.702V163.08H82.3917V187.292C82.3917 199.231 88.3249 209.929 97.7074 217.221H149.212C155.424 212.393 160.109 206.068 162.576 198.881C164.409 199.397 166.358 199.682 168.372 199.68C173.643 199.682 178.462 197.772 181.911 194.705C185.368 191.644 187.521 187.367 187.518 182.691C187.521 178.015 185.369 173.738 181.911 170.677ZM174.647 188.256C173.024 189.691 170.839 190.564 168.372 190.564C166.949 190.564 165.621 190.263 164.438 189.742C164.493 188.929 164.528 188.116 164.528 187.292V174.817C166.289 174.817 167.807 174.817 168.372 174.817C170.839 174.822 173.023 175.69 174.647 177.125C176.26 178.564 177.243 180.502 177.245 182.691C177.243 184.879 176.261 186.821 174.647 188.256Z" fill="#392E26"/>
<path d="M401.28 171.088C399.744 172.112 397.653 173.264 395.008 174.544C392.363 175.824 389.248 176.891 385.664 177.744C382.165 178.597 378.325 179.024 374.144 179.024C366.976 178.939 360.491 177.659 354.688 175.184C348.971 172.709 344.107 169.339 340.096 165.072C336.085 160.805 332.971 155.899 330.752 150.352C328.619 144.72 327.552 138.747 327.552 132.432C327.552 125.52 328.661 119.163 330.88 113.36C333.184 107.472 336.384 102.395 340.48 98.128C344.576 93.776 349.397 90.4053 354.944 88.016C360.576 85.6267 366.72 84.432 373.376 84.432C378.923 84.432 383.957 85.2 388.48 86.736C393.003 88.1867 396.885 89.936 400.128 91.984L395.136 103.504C392.576 101.797 389.461 100.176 385.792 98.64C382.208 97.104 378.197 96.336 373.76 96.336C369.237 96.336 364.971 97.232 360.96 99.024C356.949 100.816 353.408 103.333 350.336 106.576C347.264 109.819 344.832 113.616 343.04 117.968C341.333 122.235 340.48 126.843 340.48 131.792C340.48 136.827 341.248 141.52 342.784 145.872C344.405 150.139 346.667 153.851 349.568 157.008C352.555 160.165 356.139 162.64 360.32 164.432C364.501 166.224 369.195 167.12 374.4 167.12C379.093 167.12 383.275 166.395 386.944 164.944C390.613 163.493 393.643 161.872 396.032 160.08L401.28 171.088ZM419.243 178V78.928H430.891V137.296L430.635 135.12C432.427 131.621 435.158 128.72 438.827 126.416C442.582 124.112 446.976 122.96 452.011 122.96C457.046 122.96 461.142 124.453 464.299 127.44C467.542 130.341 469.206 134.139 469.291 138.832V178H457.259V143.056C457.174 140.155 456.32 137.808 454.699 136.016C453.163 134.139 450.731 133.2 447.403 133.2C444.331 133.2 441.558 134.096 439.083 135.888C436.608 137.595 434.646 139.941 433.195 142.928C431.83 145.915 431.147 149.328 431.147 153.168V178H419.243ZM489.993 125.008H501.897V178H489.993V125.008ZM489.097 105.808C489.097 103.931 489.822 102.352 491.273 101.072C492.809 99.792 494.473 99.152 496.265 99.152C498.057 99.152 499.636 99.792 501.001 101.072C502.452 102.352 503.177 103.931 503.177 105.808C503.177 107.771 502.452 109.392 501.001 110.672C499.636 111.867 498.057 112.464 496.265 112.464C494.473 112.464 492.809 111.824 491.273 110.544C489.822 109.264 489.097 107.685 489.097 105.808ZM522.493 78.928H534.397V178H522.493V78.928ZM554.993 78.928H566.897V178H554.993V78.928ZM591.845 178V135.632H582.757V125.008H591.845V102.608C591.845 94.928 593.552 89.04 596.965 84.944C600.464 80.848 605.584 78.8 612.325 78.8C614.117 78.8 616.08 79.056 618.213 79.568C620.432 80.08 622.352 80.9333 623.973 82.128L618.981 90.704C618.213 89.936 617.36 89.424 616.421 89.168C615.482 88.8267 614.544 88.656 613.605 88.656C610.448 88.656 608.016 89.7227 606.309 91.856C604.602 93.9893 603.749 97.616 603.749 102.736V125.008H620.517V135.632H603.749V178H591.845ZM657.694 179.28C651.635 179.28 646.43 178.085 642.078 175.696C637.726 173.221 634.355 169.893 631.966 165.712C629.662 161.445 628.51 156.581 628.51 151.12C628.51 145.915 629.833 141.179 632.478 136.912C635.123 132.645 638.665 129.232 643.102 126.672C647.539 124.112 652.489 122.832 657.95 122.832C664.947 122.832 670.75 124.88 675.358 128.976C679.966 133.072 683.081 138.704 684.702 145.872L641.054 161.232L638.238 154.192L674.078 141.136L671.518 142.8C670.494 139.984 668.787 137.552 666.398 135.504C664.009 133.371 660.894 132.304 657.054 132.304C653.811 132.304 650.91 133.115 648.35 134.736C645.79 136.272 643.785 138.405 642.334 141.136C640.883 143.867 640.158 146.981 640.158 150.48C640.158 154.149 640.926 157.392 642.462 160.208C643.998 162.939 646.089 165.115 648.734 166.736C651.465 168.272 654.537 169.04 657.95 169.04C660.254 169.04 662.473 168.613 664.606 167.76C666.825 166.907 668.873 165.797 670.75 164.432L676.254 173.264C673.609 175.056 670.622 176.507 667.294 177.616C664.051 178.725 660.851 179.28 657.694 179.28ZM724.194 179.28C718.135 179.28 712.93 178.085 708.578 175.696C704.226 173.221 700.855 169.893 698.466 165.712C696.162 161.445 695.01 156.581 695.01 151.12C695.01 145.915 696.333 141.179 698.978 136.912C701.623 132.645 705.165 129.232 709.602 126.672C714.039 124.112 718.989 122.832 724.45 122.832C731.447 122.832 737.25 124.88 741.858 128.976C746.466 133.072 749.581 138.704 751.202 145.872L707.554 161.232L704.738 154.192L740.578 141.136L738.018 142.8C736.994 139.984 735.287 137.552 732.898 135.504C730.509 133.371 727.394 132.304 723.554 132.304C720.311 132.304 717.41 133.115 714.85 134.736C712.29 136.272 710.285 138.405 708.834 141.136C707.383 143.867 706.658 146.981 706.658 150.48C706.658 154.149 707.426 157.392 708.962 160.208C710.498 162.939 712.589 165.115 715.234 166.736C717.965 168.272 721.037 169.04 724.45 169.04C726.754 169.04 728.973 168.613 731.106 167.76C733.325 166.907 735.373 165.797 737.25 164.432L742.754 173.264C740.109 175.056 737.122 176.507 733.794 177.616C730.551 178.725 727.351 179.28 724.194 179.28Z" fill="#392E26"/>
</svg>
