<svg width="436" height="444" viewBox="0 0 436 444" fill="none" xmlns="http://www.w3.org/2000/svg">
<circle cx="218" cy="124" r="113" fill="white"/>
<path d="M230.473 121.975C230.221 122.005 229.955 122.026 229.679 122.026C227.712 122.043 224.975 121.083 222.837 120.072C221.758 119.571 220.822 119.064 220.158 118.686C220.011 118.605 219.936 118.557 219.814 118.486V113.77C222.919 113.148 225.322 110.993 227.004 108.467C229.005 105.465 225.502 102.463 217.996 102.463C210.497 102.463 206.994 105.465 208.993 108.467C210.79 111.164 213.404 113.44 216.812 113.876V118.489C216.022 118.952 214.623 119.725 212.965 120.443C210.991 121.311 208.67 122.039 206.953 122.026C206.678 122.026 206.406 122.005 206.161 121.975C205.336 121.859 204.581 122.434 204.469 123.258C204.357 124.079 204.932 124.834 205.752 124.943C206.144 124.998 206.542 125.028 206.954 125.028C209.769 125.011 212.717 123.874 215.062 122.791C216.478 122.131 217.598 121.502 218.313 121.083C219.028 121.502 220.148 122.132 221.564 122.791C223.917 123.874 226.861 125.011 229.68 125.028C230.085 125.028 230.49 124.998 230.874 124.943C231.695 124.835 232.277 124.079 232.158 123.258C232.049 122.437 231.293 121.858 230.473 121.975Z" fill="#392E26"/>
<path d="M196.867 89.6078C194.079 89.6078 191.822 91.8713 191.822 94.6531C191.822 97.441 194.079 99.7045 196.867 99.7045C199.652 99.7045 201.912 97.441 201.912 94.6531C201.912 91.8718 199.652 89.6078 196.867 89.6078Z" fill="#392E26"/>
<path d="M217.996 11C155.589 11 105 61.5922 105 124.004C105 161.687 123.464 195.041 151.82 215.568C160.232 203.497 158.445 136.517 163.054 106.302C163.313 104.614 163.633 103 163.98 101.427C143.79 93.5845 149.193 71.1001 158.214 65.5172C169.154 58.7465 176.368 64.0636 180.282 71.9202C192.503 60.9588 208.101 58.2221 217.997 58.2221C227.899 58.2221 243.497 60.9588 255.715 71.9202C259.633 64.0636 266.839 58.746 277.78 65.5172C286.808 71.0997 292.207 93.584 272.02 101.427C272.368 103 272.681 104.614 272.94 106.302C277.555 136.517 275.762 203.503 284.177 215.571C312.532 195.041 331 161.687 331 124.004C331 61.5922 280.404 11 217.996 11Z" fill="#392E26"/>
<path d="M239.133 89.6078C236.341 89.6078 234.081 91.8713 234.081 94.6531C234.081 97.441 236.342 99.7045 239.133 99.7045C241.914 99.7045 244.178 97.441 244.178 94.6531C244.178 91.8718 241.914 89.6078 239.133 89.6078Z" fill="#392E26"/>
<path d="M157.471 223.384C157.471 231.184 165.7 237.509 175.85 237.509H253.757C263.908 237.509 272.137 231.184 272.137 223.384V223.204H157.471V223.384Z" fill="#392E26"/>
<path d="M272.911 170.677C269.462 167.61 264.643 165.702 259.372 165.702C258.807 165.702 257.289 165.702 255.529 165.702V163.08H173.392V187.292C173.392 199.231 179.325 209.929 188.707 217.221H240.212C246.424 212.393 251.109 206.068 253.576 198.881C255.409 199.397 257.358 199.682 259.372 199.68C264.643 199.682 269.462 197.772 272.911 194.705C276.368 191.644 278.521 187.367 278.518 182.691C278.521 178.015 276.369 173.738 272.911 170.677ZM265.647 188.256C264.024 189.691 261.839 190.564 259.372 190.564C257.949 190.564 256.621 190.263 255.438 189.742C255.493 188.929 255.528 188.116 255.528 187.292V174.817C257.289 174.817 258.807 174.817 259.372 174.817C261.839 174.822 264.023 175.69 265.647 177.125C267.26 178.564 268.243 180.502 268.245 182.691C268.243 184.879 267.261 186.821 265.647 188.256Z" fill="#392E26"/>
<path d="M81.28 405.088C79.744 406.112 77.6533 407.264 75.008 408.544C72.3627 409.824 69.248 410.891 65.664 411.744C62.1653 412.597 58.3253 413.024 54.144 413.024C46.976 412.939 40.4907 411.659 34.688 409.184C28.9707 406.709 24.1067 403.339 20.096 399.072C16.0853 394.805 12.9707 389.899 10.752 384.352C8.61867 378.72 7.552 372.747 7.552 366.432C7.552 359.52 8.66133 353.163 10.88 347.36C13.184 341.472 16.384 336.395 20.48 332.128C24.576 327.776 29.3973 324.405 34.944 322.016C40.576 319.627 46.72 318.432 53.376 318.432C58.9227 318.432 63.9573 319.2 68.48 320.736C73.0027 322.187 76.8853 323.936 80.128 325.984L75.136 337.504C72.576 335.797 69.4613 334.176 65.792 332.64C62.208 331.104 58.1973 330.336 53.76 330.336C49.2373 330.336 44.9707 331.232 40.96 333.024C36.9493 334.816 33.408 337.333 30.336 340.576C27.264 343.819 24.832 347.616 23.04 351.968C21.3333 356.235 20.48 360.843 20.48 365.792C20.48 370.827 21.248 375.52 22.784 379.872C24.4053 384.139 26.6667 387.851 29.568 391.008C32.5547 394.165 36.1387 396.64 40.32 398.432C44.5013 400.224 49.1947 401.12 54.4 401.12C59.0933 401.12 63.2747 400.395 66.944 398.944C70.6133 397.493 73.6427 395.872 76.032 394.08L81.28 405.088ZM99.243 412V312.928H110.891V371.296L110.635 369.12C112.427 365.621 115.158 362.72 118.827 360.416C122.582 358.112 126.976 356.96 132.011 356.96C137.046 356.96 141.142 358.453 144.299 361.44C147.542 364.341 149.206 368.139 149.291 372.832V412H137.259V377.056C137.174 374.155 136.32 371.808 134.699 370.016C133.163 368.139 130.731 367.2 127.403 367.2C124.331 367.2 121.558 368.096 119.083 369.888C116.608 371.595 114.646 373.941 113.195 376.928C111.83 379.915 111.147 383.328 111.147 387.168V412H99.243ZM169.993 359.008H181.897V412H169.993V359.008ZM169.097 339.808C169.097 337.931 169.822 336.352 171.273 335.072C172.809 333.792 174.473 333.152 176.265 333.152C178.057 333.152 179.636 333.792 181.001 335.072C182.452 336.352 183.177 337.931 183.177 339.808C183.177 341.771 182.452 343.392 181.001 344.672C179.636 345.867 178.057 346.464 176.265 346.464C174.473 346.464 172.809 345.824 171.273 344.544C169.822 343.264 169.097 341.685 169.097 339.808ZM202.493 312.928H214.397V412H202.493V312.928ZM234.993 312.928H246.897V412H234.993V312.928ZM271.845 412V369.632H262.757V359.008H271.845V336.608C271.845 328.928 273.552 323.04 276.965 318.944C280.464 314.848 285.584 312.8 292.325 312.8C294.117 312.8 296.08 313.056 298.213 313.568C300.432 314.08 302.352 314.933 303.973 316.128L298.981 324.704C298.213 323.936 297.36 323.424 296.421 323.168C295.482 322.827 294.544 322.656 293.605 322.656C290.448 322.656 288.016 323.723 286.309 325.856C284.602 327.989 283.749 331.616 283.749 336.736V359.008H300.517V369.632H283.749V412H271.845ZM337.694 413.28C331.635 413.28 326.43 412.085 322.078 409.696C317.726 407.221 314.355 403.893 311.966 399.712C309.662 395.445 308.51 390.581 308.51 385.12C308.51 379.915 309.833 375.179 312.478 370.912C315.123 366.645 318.665 363.232 323.102 360.672C327.539 358.112 332.489 356.832 337.95 356.832C344.947 356.832 350.75 358.88 355.358 362.976C359.966 367.072 363.081 372.704 364.702 379.872L321.054 395.232L318.238 388.192L354.078 375.136L351.518 376.8C350.494 373.984 348.787 371.552 346.398 369.504C344.009 367.371 340.894 366.304 337.054 366.304C333.811 366.304 330.91 367.115 328.35 368.736C325.79 370.272 323.785 372.405 322.334 375.136C320.883 377.867 320.158 380.981 320.158 384.48C320.158 388.149 320.926 391.392 322.462 394.208C323.998 396.939 326.089 399.115 328.734 400.736C331.465 402.272 334.537 403.04 337.95 403.04C340.254 403.04 342.473 402.613 344.606 401.76C346.825 400.907 348.873 399.797 350.75 398.432L356.254 407.264C353.609 409.056 350.622 410.507 347.294 411.616C344.051 412.725 340.851 413.28 337.694 413.28ZM404.194 413.28C398.135 413.28 392.93 412.085 388.578 409.696C384.226 407.221 380.855 403.893 378.466 399.712C376.162 395.445 375.01 390.581 375.01 385.12C375.01 379.915 376.333 375.179 378.978 370.912C381.623 366.645 385.165 363.232 389.602 360.672C394.039 358.112 398.989 356.832 404.45 356.832C411.447 356.832 417.25 358.88 421.858 362.976C426.466 367.072 429.581 372.704 431.202 379.872L387.554 395.232L384.738 388.192L420.578 375.136L418.018 376.8C416.994 373.984 415.287 371.552 412.898 369.504C410.509 367.371 407.394 366.304 403.554 366.304C400.311 366.304 397.41 367.115 394.85 368.736C392.29 370.272 390.285 372.405 388.834 375.136C387.383 377.867 386.658 380.981 386.658 384.48C386.658 388.149 387.426 391.392 388.962 394.208C390.498 396.939 392.589 399.115 395.234 400.736C397.965 402.272 401.037 403.04 404.45 403.04C406.754 403.04 408.973 402.613 411.106 401.76C413.325 400.907 415.373 399.797 417.25 398.432L422.754 407.264C420.109 409.056 417.122 410.507 413.794 411.616C410.551 412.725 407.351 413.28 404.194 413.28Z" fill="#392E26"/>
</svg>
